<svg aria-hidden="true" style="position: absolute; width: 0; height: 0; overflow: hidden;" version="1.1" xmlns="http://www.w3.org/2000/svg" xmlns:xlink="http://www.w3.org/1999/xlink">
<defs>
<symbol id="icon-twitter_icon" viewBox="0 0 32 32">
<path d="M21.735 7.665c1.381 0.020 2.62 0.608 3.498 1.54l0.002 0.002s1.91-0.375 2.965-1.117c0 0-0.265 1.47-2.023 2.595h0.015c0.135 0 1.12-0.025 2.67-0.75 0 0-0.297 0.848-2.325 2.46v0c0.122 3.815-1.765 10.867-8.75 13.378-1.423 0.537-3.067 0.851-4.785 0.858h-0.003c-0.018 0-0.040 0-0.061 0-2.72 0-5.25-0.809-7.364-2.199l0.051 0.031c0.375 0.038 0.713 0.038 1.050 0.038 4.13 0 6.13-2.12 6.020-2.12h-0.152c-3.5 0-4.352-3.35-4.352-3.35 0.238 0.146 0.527 0.233 0.835 0.233 0.034 0 0.068-0.001 0.102-0.003l-0.005 0c0.449-0.010 0.878-0.076 1.286-0.191l-0.036 0.009c-3.95-0.935-3.803-4.725-3.803-4.725 0.506 0.342 1.127 0.551 1.797 0.565l0.003 0c0.006 0 0.013 0 0.020 0 0.104 0 0.207-0.009 0.306-0.027l-0.011 0.002c-3.607-2.855-1.435-6.263-1.435-6.263 4.065 4.718 9.062 4.885 9.75 4.885h0.082c-0.37-2.215 0.543-4.342 3-5.5 0.47-0.221 1.021-0.35 1.602-0.35 0.012 0 0.024 0 0.035 0h-0.002zM26.55 12.4v0zM30.5 4.5l-3.233 2.27c-0.456 0.278-0.984 0.505-1.543 0.653l-0.042 0.009c-1.081-0.85-2.457-1.369-3.954-1.385l-0.004-0c-0.015-0-0.033-0-0.050-0-0.825 0-1.608 0.184-2.308 0.514l0.033-0.014c-2.295 1.077-3.69 2.937-3.967 5.17-2.807-0.593-5.2-2.073-6.932-4.129l-0.015-0.019-1.425-1.652-1.175 1.833c-0.574 0.931-0.914 2.060-0.914 3.268 0 0.316 0.023 0.628 0.068 0.932l-0.004-0.034-0.093 2.383c-0 0.027-0.001 0.058-0.001 0.090 0 1.548 0.536 2.971 1.433 4.093l-0.010-0.013 0.25 0.975c0.378 1.299 1.108 2.396 2.080 3.214l0.010 0.008c-0.598 0.137-1.285 0.215-1.99 0.215-0.015 0-0.030-0-0.045-0h0.002c-0.298 0-0.605-0.012-0.915-0.038l-5.732-0.477 4.638 3.407c2.33 1.553 5.194 2.478 8.273 2.478 0.023 0 0.045-0 0.067-0h-0.003c1.919-0.005 3.756-0.353 5.454-0.986l-0.109 0.036c3.475-1.265 6.255-3.737 7.888-6.898l0.037-0.080c1.093-2.081 1.78-4.529 1.891-7.127l0.001-0.036c1.657-1.428 2.113-2.338 2.235-2.685l1.28-3.643-1.75 0.815 0.573-3.147z"></path>
</symbol>
<symbol id="icon-instagram_icon" viewBox="0 0 32 32">
<path d="M20.75 5.75c3.038 0 5.5 2.462 5.5 5.5v0 9.5c0 3.038-2.462 5.5-5.5 5.5v0h-9.5c-3.038 0-5.5-2.462-5.5-5.5v0-9.5c0-3.038 2.462-5.5 5.5-5.5v0h9.5zM20.75 3.75h-9.5c-4.137 0.013-7.487 3.363-7.5 7.499v9.501c0.013 4.137 3.363 7.487 7.499 7.5h9.501c4.137-0.013 7.487-3.363 7.5-7.499v-9.501c-0.013-4.137-3.363-7.487-7.499-7.5h-0.001z"></path>
<path d="M22.535 8c-0.791 0-1.433 0.641-1.433 1.433s0.641 1.433 1.433 1.433c0.791 0 1.433-0.641 1.433-1.433v0c0-0.791-0.641-1.433-1.433-1.433v0z"></path>
<path d="M16.067 11.617c0.001 0 0.002 0 0.003 0 2.441 0 4.42 1.979 4.42 4.42s-1.979 4.42-4.42 4.42c-2.441 0-4.42-1.979-4.42-4.42 0-0.001 0-0.002 0-0.003v0c0.004-2.438 1.979-4.413 4.417-4.418h0zM16.067 9.617c-3.54 0.007-6.407 2.879-6.407 6.42 0 3.546 2.874 6.42 6.42 6.42s6.42-2.874 6.42-6.42c0-0.001 0-0.002 0-0.003v0c-0.001-3.545-2.875-6.418-6.42-6.418-0.004 0-0.009 0-0.013 0h0.001z"></path>
</symbol>
</defs>
</svg>
